<?xml version="1.0" encoding="UTF-8" standalone="no"?>
<!DOCTYPE svg PUBLIC "-//W3C//DTD SVG 1.1//EN" "http://www.w3.org/Graphics/SVG/1.1/DTD/svg11.dtd">
<svg width="100%" height="100%" viewBox="0 0 4557 4402" version="1.1" xmlns="http://www.w3.org/2000/svg" xmlns:xlink="http://www.w3.org/1999/xlink" xml:space="preserve" xmlns:serif="http://www.serif.com/" style="fill-rule:evenodd;clip-rule:evenodd;stroke-miterlimit:10;">
    <g transform="matrix(1,0,0,1,138.412,-4173.15)">
        <g id="Layer-1" serif:id="Layer 1" transform="matrix(4.16667,0,0,4.16667,0,0)">
            <g transform="matrix(1,0,0,1,513.586,1167.01)">
                <path d="M0,725.382L235.691,0L-381.356,448.311L381.356,448.311L-235.691,0L0,725.382Z" style="fill:none;fill-rule:nonzero;stroke:rgb(177,52,37);stroke-width:18px;"/>
            </g>
            <g transform="matrix(0,1,1,0,513.586,1817.39)">
                <path d="M75,-75C33.579,-75 0,-41.421 0,0C0,41.421 33.579,75 75,75C116.421,75 150,41.421 150,0C150,-41.421 116.421,-75 75,-75" style="fill:white;fill-rule:nonzero;"/>
            </g>
            <g transform="matrix(0,1,1,0,513.586,1817.39)">
                <circle cx="75" cy="0" r="75" style="fill:none;stroke:rgb(177,52,37);stroke-width:18px;"/>
            </g>
            <g transform="matrix(0,1,1,0,132.23,1540.3)">
                <path d="M75,-75C33.579,-75 0,-41.421 0,0C0,41.421 33.579,75 75,75C116.421,75 150,41.421 150,0C150,-41.421 116.421,-75 75,-75" style="fill:white;fill-rule:nonzero;"/>
            </g>
            <g transform="matrix(0,1,1,0,132.23,1540.3)">
                <circle cx="75" cy="0" r="75" style="fill:none;stroke:rgb(177,52,37);stroke-width:18px;"/>
            </g>
            <g transform="matrix(0,1,1,0,277.888,1092.01)">
                <path d="M75,-75C33.579,-75 0,-41.421 0,0C0,41.421 33.579,75 75,75C116.421,75 150,41.421 150,0C150,-41.421 116.421,-75 75,-75" style="fill:white;fill-rule:nonzero;"/>
            </g>
            <g transform="matrix(0,1,1,0,277.888,1092.01)">
                <circle cx="75" cy="0" r="75" style="fill:none;stroke:rgb(177,52,37);stroke-width:18px;"/>
            </g>
            <g transform="matrix(0,1,1,0,894.942,1540.31)">
                <path d="M75,-75C33.579,-75 0,-41.421 0,0C0,41.421 33.579,75 75,75C116.421,75 150,41.421 150,0C150,-41.421 116.421,-75 75,-75" style="fill:white;fill-rule:nonzero;"/>
            </g>
            <g transform="matrix(0,1,1,0,894.942,1540.31)">
                <circle cx="75" cy="0" r="75" style="fill:none;stroke:rgb(177,52,37);stroke-width:18px;"/>
            </g>
            <g transform="matrix(0,1,1,0,749.264,1092.01)">
                <path d="M75,-75C33.579,-75 0,-41.421 0,0C0,41.421 33.579,75 75,75C116.421,75 150,41.421 150,0C150,-41.421 116.421,-75 75,-75" style="fill:white;fill-rule:nonzero;"/>
            </g>
            <g transform="matrix(0,1,1,0,749.264,1092.01)">
                <circle cx="75" cy="0" r="75" style="fill:none;stroke:rgb(177,52,37);stroke-width:18px;"/>
            </g>
        </g>
    </g>
</svg>
