<?xml version="1.0" encoding="UTF-8" standalone="no"?>
<!DOCTYPE svg PUBLIC "-//W3C//DTD SVG 1.1//EN" "http://www.w3.org/Graphics/SVG/1.1/DTD/svg11.dtd">
<svg width="100%" height="100%" viewBox="0 0 4557 4402" version="1.1" xmlns="http://www.w3.org/2000/svg" xmlns:xlink="http://www.w3.org/1999/xlink" xml:space="preserve" xmlns:serif="http://www.serif.com/" style="fill-rule:evenodd;clip-rule:evenodd;stroke-miterlimit:10;">
    <g transform="matrix(1,0,0,1,138.412,-88.6622)">
        <g id="Layer-2" serif:id="Layer 2" transform="matrix(4.16667,0,0,4.16667,0,0)">
            <g transform="matrix(0,-1,-1,0,513.586,186.728)">
                <path d="M-399.957,-399.957C-620.847,-399.957 -799.914,-220.89 -799.914,0C-799.914,220.89 -620.847,399.957 -399.957,399.957C-179.067,399.957 0,220.89 0,0C0,-220.89 -179.067,-399.957 -399.957,-399.957Z" style="fill:none;fill-rule:nonzero;stroke:rgb(177,52,37);stroke-width:18px;"/>
            </g>
            <g transform="matrix(0,-1,-1,0,513.586,111.728)">
                <path d="M-75,-75C-116.421,-75 -150,-41.421 -150,0C-150,41.421 -116.421,75 -75,75C-33.579,75 0,41.421 0,0C0,-41.421 -33.579,-75 -75,-75" style="fill:white;fill-rule:nonzero;"/>
            </g>
            <g transform="matrix(0,-1,-1,0,513.586,111.728)">
                <circle cx="-75" cy="0" r="75" style="fill:none;stroke:rgb(177,52,37);stroke-width:18px;"/>
            </g>
            <g transform="matrix(0,-1,-1,0,894.942,388.811)">
                <path d="M-75,-75C-116.421,-75 -150,-41.421 -150,0C-150,41.421 -116.421,75 -75,75C-33.579,75 0,41.421 0,0C0,-41.421 -33.579,-75 -75,-75" style="fill:white;fill-rule:nonzero;"/>
            </g>
            <g transform="matrix(0,-1,-1,0,894.942,388.811)">
                <circle cx="-75" cy="0" r="75" style="fill:none;stroke:rgb(177,52,37);stroke-width:18px;"/>
            </g>
            <g transform="matrix(0,-1,-1,0,749.284,837.11)">
                <path d="M-75,-75C-116.421,-75 -150,-41.421 -150,0C-150,41.421 -116.421,75 -75,75C-33.579,75 0,41.421 0,0C0,-41.421 -33.579,-75 -75,-75" style="fill:white;fill-rule:nonzero;"/>
            </g>
            <g transform="matrix(0,-1,-1,0,749.284,837.11)">
                <circle cx="-75" cy="0" r="75" style="fill:none;stroke:rgb(177,52,37);stroke-width:18px;"/>
            </g>
            <g transform="matrix(0,-1,-1,0,132.23,388.804)">
                <path d="M-75,-75C-116.421,-75 -150,-41.421 -150,0C-150,41.421 -116.421,75 -75,75C-33.579,75 0,41.421 0,0C0,-41.421 -33.579,-75 -75,-75" style="fill:white;fill-rule:nonzero;"/>
            </g>
            <g transform="matrix(0,-1,-1,0,132.23,388.804)">
                <circle cx="-75" cy="0" r="75" style="fill:none;stroke:rgb(177,52,37);stroke-width:18px;"/>
            </g>
            <g transform="matrix(0,-1,-1,0,277.908,837.11)">
                <path d="M-75,-75C-116.421,-75 -150,-41.421 -150,0C-150,41.421 -116.421,75 -75,75C-33.579,75 0,41.421 0,0C0,-41.421 -33.579,-75 -75,-75" style="fill:white;fill-rule:nonzero;"/>
            </g>
            <g transform="matrix(0,-1,-1,0,277.908,837.11)">
                <circle cx="-75" cy="0" r="75" style="fill:none;stroke:rgb(177,52,37);stroke-width:18px;"/>
            </g>
            <g transform="matrix(0,-1,-1,0,513.586,263.142)">
                <path d="M-323.543,-323.543C-502.231,-323.543 -647.086,-178.688 -647.086,0C-647.086,178.688 -502.231,323.543 -323.543,323.543C-144.855,323.543 0,178.688 0,0C0,-178.688 -144.855,-323.543 -323.543,-323.543Z" style="fill:none;fill-rule:nonzero;stroke:rgb(177,52,37);stroke-width:18px;"/>
            </g>
        </g>
    </g>
</svg>
